<?xml version="1.0" standalone="no"?>
<!DOCTYPE svg PUBLIC "-//W3C//DTD SVG 20010904//EN"
 "http://www.w3.org/TR/2001/REC-SVG-20010904/DTD/svg10.dtd">
<svg version="1.0" xmlns="http://www.w3.org/2000/svg"
 width="700.000000pt" height="700.000000pt" viewBox="0 0 700.000000 700.000000"
 preserveAspectRatio="xMidYMid meet">
<metadata>
Created by potrace 1.14, written by Peter Selinger 2001-2017
</metadata>
<g transform="translate(0.000000,700.000000) scale(0.100000,-0.100000)"
fill="#000000" stroke="none">
<path d="M3375 6770 c-158 -31 -322 -139 -412 -270 -26 -39 -226 -383 -287
-495 -21 -37 -159 -278 -205 -356 -11 -19 -29 -52 -41 -74 -12 -22 -76 -133
-141 -246 -65 -113 -122 -223 -127 -245 -38 -171 146 -320 303 -244 23 11 53
32 67 47 20 22 214 354 416 713 14 25 50 88 80 140 30 52 64 110 74 129 139
247 226 391 250 414 102 99 276 67 346 -63 10 -19 107 -188 214 -375 107 -187
210 -367 228 -400 18 -33 44 -77 57 -97 12 -21 23 -40 23 -44 0 -3 8 -18 19
-32 10 -15 32 -52 48 -82 21 -40 370 -650 509 -892 4 -6 -260 59 -332 83 -17
5 -41 12 -54 14 -12 2 -48 12 -79 21 -80 23 -101 27 -146 26 -113 -2 -207 -99
-206 -216 0 -82 42 -156 111 -191 19 -10 142 -46 274 -82 133 -35 291 -77 351
-94 61 -16 160 -42 220 -58 321 -86 298 -82 378 -67 44 8 119 71 136 114 5 15
21 68 35 117 42 154 147 545 151 563 2 9 29 110 59 224 60 220 66 278 39 336
-24 51 -41 70 -93 100 -121 72 -286 -2 -321 -145 -5 -21 -11 -45 -13 -53 -2
-8 -11 -42 -20 -75 -9 -33 -30 -112 -47 -175 -17 -63 -32 -117 -34 -120 -2 -4
-7 -22 -10 -40 -3 -18 -9 -40 -14 -47 -5 -10 -98 143 -287 474 -153 268 -284
497 -290 508 -20 37 -62 109 -134 235 -40 69 -82 143 -94 165 -12 22 -68 120
-125 218 -56 98 -114 199 -128 225 -78 141 -141 223 -216 280 -85 65 -172 107
-264 128 -44 10 -224 12 -268 4z"/>
<path d="M1700 4159 c-14 -4 -263 -71 -555 -149 -291 -78 -541 -148 -555 -155
-65 -34 -113 -116 -112 -190 1 -125 94 -218 217 -217 28 0 130 22 235 52 102
28 196 53 210 56 14 3 55 14 93 24 37 10 66 16 63 12 -20 -34 -524 -917 -541
-947 -27 -51 -176 -309 -204 -355 -11 -19 -24 -42 -28 -50 -4 -8 -29 -53 -56
-100 -27 -47 -58 -101 -69 -120 -11 -19 -70 -122 -130 -228 -142 -248 -168
-321 -169 -478 -1 -265 184 -527 431 -608 30 -10 66 -23 80 -29 17 -7 282 -12
810 -13 854 -3 844 -3 911 53 72 61 94 178 51 262 -27 51 -52 75 -107 101 -38
19 -71 20 -800 20 -743 0 -761 1 -805 21 -76 34 -110 76 -129 158 -16 72 -2
106 129 336 10 17 52 91 94 165 42 74 81 142 86 150 5 8 39 67 75 130 36 63
77 135 91 160 26 44 248 434 295 517 198 348 363 632 367 629 3 -4 36 -118 52
-186 13 -56 68 -258 91 -333 47 -159 198 -222 331 -138 59 38 89 87 95 159 5
48 -3 88 -45 242 -28 102 -85 316 -127 475 -112 421 -122 454 -150 491 -28 36
-69 68 -101 78 -35 11 -98 13 -124 5z"/>
<path d="M5827 3068 c-116 -24 -196 -152 -165 -265 5 -20 90 -176 187 -347 98
-171 193 -338 211 -371 18 -33 54 -96 80 -140 26 -44 58 -100 72 -125 14 -25
72 -126 128 -224 104 -182 129 -238 124 -289 -9 -91 -76 -175 -156 -195 -35
-9 -370 -12 -1267 -12 -672 0 -1221 3 -1221 6 0 4 67 73 149 155 81 81 156
164 165 184 49 104 5 234 -97 287 -58 30 -147 29 -201 -1 -22 -13 -197 -181
-390 -374 -269 -270 -355 -362 -368 -394 -22 -58 -16 -142 16 -190 13 -21 181
-194 373 -385 245 -245 360 -352 387 -363 170 -71 343 88 289 267 -13 45 -34
71 -169 208 -85 86 -154 159 -154 161 0 2 566 4 1258 4 1008 0 1268 3 1312 14
30 7 97 33 149 58 156 75 280 219 334 388 18 58 22 93 22 200 -1 114 -4 139
-26 201 -29 79 -795 1431 -838 1477 -50 55 -130 81 -204 65z"/>
</g>
</svg>
